<svg xmlns="http://www.w3.org/2000/svg" version="1.1" xmlns:xlink="http://www.w3.org/1999/xlink" xmlns:svgjs="http://svgjs.dev/svgjs" width="1000" height="121" viewBox="0 0 1000 121"><g transform="matrix(1,0,0,1,-0.6060606060606233,0.3104848429838043)"><svg viewBox="0 0 396 48" data-background-color="#0718c4" preserveAspectRatio="xMidYMid meet" height="121" width="1000" xmlns="http://www.w3.org/2000/svg" xmlns:xlink="http://www.w3.org/1999/xlink"><g id="tight-bounds" transform="matrix(1,0,0,1,0.2400000000000091,-0.12316597947568653)"><svg viewBox="0 0 395.52 48.2463335204941" height="48.2463335204941" width="395.52"><g><svg viewBox="0 0 395.52000000000004 48.246333520494105" height="48.2463335204941" width="395.52"><g><svg viewBox="0 0 395.52000000000004 48.246333520494105" height="48.246333520494105" width="395.52000000000004"><g><svg viewBox="0 0 395.52000000000004 48.246333520494105" height="48.246333520494105" width="395.52000000000004"><g><svg viewBox="0 0 395.52000000000004 48.246333520494105" height="48.246333520494105" width="395.52000000000004"><g transform="matrix(1,0,0,1,0,0)"><svg width="395.52000000000004" viewBox="5.519999980926514 -41.939998626708984 347.82000732421875 42.43000030517578" height="48.246333520494105" data-palette-color="#ffffff"><path d="M8.35-36.01L8.35-36.01Q6.71-36.01 6.25-36.47L6.25-36.47Q5.52-37.23 5.52-38.56 5.52-39.89 5.68-40.47 5.83-41.04 6.15-41.36L6.15-41.36Q6.74-41.94 7.95-41.94 9.16-41.94 9.68-41.82 10.21-41.7 10.55-41.36L10.55-41.36Q11.13-40.77 11.13-39.44 11.13-38.11 11-37.54 10.86-36.96 10.55-36.62L10.55-36.62Q9.94-36.01 8.35-36.01ZM6.42 0L6.37-29.05 10.38-29.05 10.38 0 6.42 0ZM35.86-25.73L35.86-25.73Q31.1-25.73 26.17-22.92L26.17-22.92 26.17 0 22.12 0 22.12-29.05 25.68-29.05 26.07-26.05Q28.73-28.22 32.69-29.15L32.69-29.15Q34.3-29.54 36.47-29.54 38.64-29.54 40.31-29.04 41.97-28.54 42.94-27.44L42.94-27.44Q44.72-25.46 44.72-20.24L44.72-20.24 44.72 0 40.62 0 40.62-19.48Q40.62-23 39.94-24.01 39.26-25.02 38.32-25.38 37.38-25.73 35.86-25.73ZM74.87 0.1L74.29-3.25Q69.14 0.49 63.81 0.49L63.81 0.49Q57.93 0.49 55.98-3.83L55.98-3.83Q54.85-6.27 54.72-9 54.58-11.72 54.58-13.78 54.58-15.84 54.62-17.94 54.66-20.04 54.93-21.83 55.2-23.61 55.77-25.04 56.34-26.46 57.42-27.47L57.42-27.47Q59.64-29.54 64.75-29.54 69.87-29.54 73.99-27.76L73.99-27.76 73.99-41.55 78.05-41.94 78.05-13.35Q78.05-4.93 78.51-0.2L78.51-0.2 74.87 0.1ZM73.97-13.55L73.99-24.41Q69.6-25.88 65.5-25.88L65.5-25.88Q62.52-25.88 61.57-25.39 60.62-24.9 60.11-24.12 59.61-23.34 59.3-21.97L59.3-21.97Q58.74-19.41 58.74-13.53L58.74-13.53 58.74-12.99Q58.74-7.5 59.93-5.4L59.93-5.4Q61.23-3.17 64.74-3.17L64.74-3.17 65.11-3.17Q68.48-3.17 72.29-5.32L72.29-5.32Q73.33-5.91 74.09-6.49L74.09-6.49 74.09-6.54Q73.97-8.81 73.97-13.55L73.97-13.55ZM110.69-29.05L110.69-12.79Q110.69-4.74 111.15-0.2L111.15-0.2 107.51 0.1 106.93-3.34Q104.07-0.98 100.26 0.07L100.26 0.07Q98.75 0.49 96.66 0.49 94.57 0.49 92.92-0.01 91.28-0.51 90.3-1.61L90.3-1.61Q88.52-3.59 88.52-8.81L88.52-8.81 88.52-29.05 92.62-29.05 92.62-9.47Q92.62-5.96 93.3-4.94 93.99-3.93 94.93-3.58 95.87-3.22 97.16-3.22 98.45-3.22 99.66-3.43 100.87-3.64 102.09-4.03L102.09-4.03Q104.66-4.86 106.73-6.3L106.73-6.3 106.73-6.32Q106.63-8.18 106.63-13.55L106.63-13.55 106.63-29.05 110.69-29.05ZM140.98-4.59L142.2-1.29Q138.81 0.49 132.9 0.49L132.9 0.49Q129.41 0.49 127.77-0.05L127.77-0.05Q123.6-1.46 122.3-4.86L122.3-4.86Q121.4-7.23 121.25-9.96 121.11-12.7 121.11-14.58 121.11-16.46 121.21-18.25 121.3-20.04 121.68-21.7 122.06-23.36 122.84-24.79 123.62-26.22 124.97-27.29L124.97-27.29Q127.87-29.54 133.32-29.54L133.32-29.54Q137.32-29.54 140.69-28.37L140.69-28.37Q141.59-28.08 142.06-27.81L142.06-27.81 140.83-24.19Q136.15-26 133.16-26 130.17-26 128.76-25.32 127.36-24.63 126.58-23.24L126.58-23.24Q125.26-20.85 125.26-14.45L125.26-14.45Q125.26-11.89 125.43-9.78 125.6-7.67 126.28-6.15L126.28-6.15Q127.72-3.03 132.23-3.03 136.73-3.03 140.98-4.59L140.98-4.59ZM164.12-4.57L165.51-1.39Q161.54 0.49 158.17 0.49L158.17 0.49Q152.06 0.49 151.23-4.74L151.23-4.74Q151.04-5.98 151.04-8.35L151.04-8.35 151.04-25.66 147.52-25.66 147.52-28.66 151.04-29.05 151.67-35.69 155.07-35.69 155.07-29.05 163.54-29.05 163.54-25.66 155.07-25.66 155.07-8.42Q155.07-5.42 155.51-4.59L155.51-4.59Q156.31-3.08 158.73-3.08 161.14-3.08 164.12-4.57L164.12-4.57ZM184.85-25.73L184.85-25.73Q180.87-25.73 176.16-22.92L176.16-22.92 176.16 0 172.1 0 172.1-29.05 175.67-29.05 176.06-26.05Q180.33-29.54 185.63-29.54L185.63-29.54Q188.66-29.54 190.4-28.67 192.15-27.81 192.93-25.83L192.93-25.83Q198.32-29.54 203.18-29.54L203.18-29.54Q207.77-29.54 209.56-27.44L209.56-27.44Q211.26-25.42 211.26-20.24L211.26-20.24 211.26 0 207.16 0 207.16-19.48Q207.16-23 206.48-24.01 205.8-25.02 204.86-25.38 203.92-25.73 202.66-25.73 201.4-25.73 200.29-25.5 199.18-25.27 198.03-24.88L198.03-24.88Q195.71-24.07 193.59-22.83L193.59-22.83Q193.71-21.36 193.71-20.24L193.71-20.24 193.71 0 189.61 0 189.61-19.48Q189.61-23 188.93-24.01 188.24-25.02 187.3-25.38 186.36-25.73 184.85-25.73ZM243.59-5.03L244.78-1.54Q239.73 0.49 233.63 0.49L233.63 0.49Q230.09 0.49 227.62-0.24L227.62-0.24Q223.69-1.37 222.39-4.88L222.39-4.88Q221.2-8.18 221.2-14.65L221.2-14.65 221.2-15.89Q221.2-23.63 224.42-26.76L224.42-26.76Q227.33-29.54 234.11-29.54L234.11-29.54Q240.73-29.54 243.15-26.27L243.15-26.27Q244.32-24.68 244.7-22.42 245.08-20.17 245.08-18.12L245.08-18.12Q245.08-14.92 244.93-13.16L244.93-13.16Q241.49-13.01 238.75-13.01L238.75-13.01Q238.75-13.01 234.82-13.01L234.82-13.01Q228.67-13.01 225.35-13.55L225.35-13.55Q225.35-7.93 226.76-5.71L226.76-5.71Q228.5-3 233.67-3 238.85-3 243.59-5.03L243.59-5.03ZM225.35-16.41L240.95-16.41 240.95-18.75Q240.95-22.58 239.46-24.22L239.46-24.22Q237.8-26.05 233.72-26.05L233.72-26.05Q228.84-26.05 227.06-23.93L227.06-23.93Q225.35-21.9 225.35-16.41L225.35-16.41ZM253.97-0.04Q253.52-0.54 253.4-1.16 253.28-1.78 253.28-2.75 253.28-3.71 253.41-4.32 253.54-4.93 253.89-5.27L253.89-5.27Q254.45-5.91 255.72-5.91 256.99-5.91 257.54-5.77 258.09-5.64 258.4-5.27L258.4-5.27Q258.96-4.66 258.96-2.76L258.96-2.76Q258.96-0.85 258.52-0.34L258.52-0.34Q257.84 0.46 256.13 0.46L256.13 0.46Q254.42 0.46 253.97-0.04ZM268.75 0L268.7-41.5 272.73-41.85 272.73 0 268.75 0ZM287.4-36.01L287.4-36.01Q285.77-36.01 285.3-36.47L285.3-36.47Q284.57-37.23 284.57-38.56 284.57-39.89 284.73-40.47 284.89-41.04 285.2-41.36L285.2-41.36Q285.79-41.94 287-41.94 288.21-41.94 288.73-41.82 289.26-41.7 289.6-41.36L289.6-41.36Q290.18-40.77 290.18-39.44 290.18-38.11 290.05-37.54 289.92-36.96 289.6-36.62L289.6-36.62Q288.99-36.01 287.4-36.01ZM285.47 0L285.42-29.05 289.43-29.05 289.43 0 285.47 0ZM307.69 0L297.73-29.05 302.1-29.05 309.71-5.35 310.45-2.93 311.13-5.35 318.41-29.05 322.82-29.05 313.01 0 307.69 0ZM351.85-5.03L353.05-1.54Q347.99 0.49 341.89 0.49L341.89 0.49Q338.35 0.49 335.88-0.24L335.88-0.24Q331.95-1.37 330.66-4.88L330.66-4.88Q329.46-8.18 329.46-14.65L329.46-14.65 329.46-15.89Q329.46-23.63 332.68-26.76L332.68-26.76Q335.59-29.54 342.38-29.54L342.38-29.54Q348.99-29.54 351.41-26.27L351.41-26.27Q352.58-24.68 352.96-22.42 353.34-20.17 353.34-18.12L353.34-18.12Q353.34-14.92 353.19-13.16L353.19-13.16Q349.75-13.01 347.02-13.01L347.02-13.01Q347.02-13.01 343.09-13.01L343.09-13.01Q336.93-13.01 333.61-13.55L333.61-13.55Q333.61-7.93 335.03-5.71L335.03-5.71Q336.76-3 341.94-3 347.11-3 351.85-5.03L351.85-5.03ZM333.61-16.41L349.21-16.41 349.21-18.75Q349.21-22.58 347.72-24.22L347.72-24.22Q346.06-26.05 341.99-26.05L341.99-26.05Q337.1-26.05 335.32-23.93L335.32-23.93Q333.61-21.9 333.61-16.41L333.61-16.41Z" opacity="1" transform="matrix(1,0,0,1,0,0)" fill="#ffffff" class="undefined-text-0" data-fill-palette-color="primary" id="text-0"></path></svg></g></svg></g></svg></g></svg></g></svg></g><defs></defs></svg><rect width="395.52" height="48.2463335204941" fill="none" stroke="none" visibility="hidden"></rect></g></svg></g></svg>